<svg id="Layer_1" viewBox="0 0 512 512" xmlns="http://www.w3.org/2000/svg" xmlns:xlink="http://www.w3.org/1999/xlink" data-name="Layer 1"><linearGradient id="linear-gradient" gradientUnits="userSpaceOnUse" x1="119.604" x2="407.947" y1="492.246" y2="-7.179"><stop offset=".016" stop-color="#e65233"/><stop offset="1" stop-color="#f9a82d"/></linearGradient><path d="m91.339 474.27v-40.385h-40.385zm65.625-392.079h191.722v401.115h-244.566v-55.811c0-3.529-2.861-6.39-6.39-6.39h-55.811v-338.914zm149.957-12.781-143.608-38.771v38.771zm-101.844-40.716 151.318 40.853c2.897.608 5.072 3.177 5.072 6.254v354.009h108.614v-401.116zm-116.546 101.701c-3.529 0-6.39 2.861-6.39 6.39v98.592c0 3.529 2.861 6.39 6.39 6.39h123.803c3.529 0 6.39-2.861 6.39-6.39v-98.592c0-3.529-2.861-6.39-6.39-6.39zm0 146.376h210.885c3.529 0 6.39-2.861 6.39-6.39s-2.861-6.39-6.39-6.39h-210.885c-3.529 0-6.39 2.861-6.39 6.39s2.861 6.39 6.39 6.39zm0 41.366h210.885c3.529 0 6.39-2.861 6.39-6.39s-2.861-6.39-6.39-6.39h-210.885c-3.529 0-6.39 2.861-6.39 6.39s2.861 6.39 6.39 6.39zm0 41.366h210.885c3.529 0 6.39-2.861 6.39-6.39s-2.861-6.39-6.39-6.39h-210.885c-3.529 0-6.39 2.861-6.39 6.39s2.861 6.39 6.39 6.39zm0 41.366h210.885c3.529 0 6.39-2.861 6.39-6.39s-2.861-6.39-6.39-6.39h-210.885c-3.529 0-6.39 2.861-6.39 6.39s2.861 6.39 6.39 6.39zm54.557 41.367h156.328c3.529 0 6.39-2.861 6.39-6.39s-2.861-6.39-6.39-6.39h-156.328c-3.529 0-6.39 2.861-6.39 6.39s2.861 6.39 6.39 6.39zm94.426-206.83h61.902c3.529 0 6.39-2.861 6.39-6.39s-2.861-6.39-6.39-6.39h-61.902c-3.529 0-6.39 2.861-6.39 6.39s2.861 6.39 6.39 6.39zm0-82.732h61.902c3.529 0 6.39-2.861 6.39-6.39s-2.861-6.39-6.39-6.39h-61.902c-3.529 0-6.39 2.861-6.39 6.39s2.861 6.39 6.39 6.39zm-31.571 55.402-31.107-19.076-20.088 15.877c-2.321 2.138-5.924 2.274-8.409.194l-18.839-15.789-32.579 22.88v16.826h111.023v-20.912zm-111.023-11.502 29.253-20.545c2.434-1.712 5.652-1.483 7.813.367l18.577 15.569 19.878-15.711c2.148-1.697 5.051-1.787 7.258-.44l.006-.009 28.238 17.316v-49.944h-111.023zm142.593-2.533h61.902c3.529 0 6.39-2.861 6.39-6.39s-2.861-6.39-6.39-6.39h-61.902c-3.529 0-6.39 2.861-6.39 6.39s2.861 6.39 6.39 6.39z" fill="url(#linear-gradient)" fill-rule="evenodd"/></svg>